<svg id="Capa_1" enable-background="new 0 0 512.003 512.003" height="512" viewBox="0 0 512.003 512.003" width="512" xmlns="http://www.w3.org/2000/svg"><g><g><path clip-rule="evenodd" d="m376.931 47.243c-2.047-5.651-4.93-10.927-10.926-10.927h-116.675c-6.025 0-8.88 5.276-10.926 10.927l-10.609 29.321 82.223 9.428 77.523-9.428z" fill="#7e707d" fill-rule="evenodd"/></g><g><path clip-rule="evenodd" d="m387.54 76.563-10.609-29.321c-2.047-5.651-4.93-10.927-10.926-10.927h-41.947c6.025 0 8.908 5.276 10.926 10.927l10.609 29.321z" fill="#6a5c6b" fill-rule="evenodd"/></g><g><path clip-rule="evenodd" d="m140.844 85.991v-35.058c0-5.737-4.67-10.408-10.408-10.408h-33.413c-5.708 0-10.379 4.671-10.379 10.408v35.058z" fill="#7e707d" fill-rule="evenodd"/></g><g><path clip-rule="evenodd" d="m504.503 199.439v-102.262c0-11.33-9.254-20.614-20.584-20.614h-352.503v122.876z" fill="#a6e0fa" fill-rule="evenodd"/></g><g><path clip-rule="evenodd" d="m504.503 341.257v-97.937c-134.491 0-241.277 0-373.086 0v118.551h352.502c11.33 0 20.584-9.284 20.584-20.614z" fill="#a6e0fa" fill-rule="evenodd"/></g><g><path clip-rule="evenodd" d="m421.473 190.012c-13.435-44.341-54.604-76.632-103.355-76.632-48.722 0-89.891 32.29-103.326 76.632-3.027 9.918-4.642 20.441-4.642 31.368 0 10.898 1.614 21.421 4.642 31.368 13.435 44.341 54.604 76.603 103.326 76.603 48.751 0 89.92-32.261 103.355-76.603 3.027-9.947 4.642-20.47 4.642-31.368 0-10.927-1.615-21.451-4.642-31.368z" fill="#7e707d" fill-rule="evenodd"/></g><g><path clip-rule="evenodd" d="m421.473 252.747c3.027-9.947 4.642-20.47 4.642-31.368 0-10.927-1.614-21.45-4.642-31.368-13.435-44.341-54.604-76.632-103.355-76.632-3.863 0-7.698.202-11.474.605 41.371 6.343 74.986 36.125 86.864 75.363.086.231.144.432.202.663 2.883 9.745 4.44 20.037 4.44 30.705 0 10.927-1.614 21.45-4.642 31.368-.058.231-.115.432-.202.663-12.541 40.478-48.261 70.779-91.679 75.363 5.391.807 10.898 1.24 16.491 1.24 48.751.001 89.92-32.261 103.355-76.602z" fill="#6a5c6b" fill-rule="evenodd"/></g><g><path clip-rule="evenodd" d="m504.503 97.177c0-11.33-9.254-20.614-20.584-20.614h-34.74c11.33 0 20.613 9.283 20.613 20.614v19.432 73.403h34.711z" fill="#75cef9" fill-rule="evenodd"/></g><g><path clip-rule="evenodd" d="m504.503 341.257v-88.51h-34.711v88.51c0 11.302-9.254 20.585-20.584 20.614h.029 34.682c11.33 0 20.584-9.284 20.584-20.614z" fill="#75cef9" fill-rule="evenodd"/></g><g><path clip-rule="evenodd" d="m386.704 221.379c0-11.302-2.739-21.969-7.582-31.368-11.388-22.113-34.423-37.22-61.004-37.22-26.552 0-49.587 15.107-60.975 37.22-4.843 9.399-7.582 20.066-7.582 31.368s2.739 21.969 7.582 31.368c11.388 22.084 34.423 37.191 60.975 37.191 26.581 0 49.616-15.107 61.004-37.191 4.844-9.399 7.582-20.066 7.582-31.368z" fill="#eff6ff" fill-rule="evenodd"/></g><g><path clip-rule="evenodd" d="m386.704 221.379c0-11.302-2.739-21.969-7.582-31.368-11.388-22.113-34.423-37.22-61.004-37.22-6.717 0-13.233.98-19.402 2.797 20.988 3.46 38.776 16.491 48.722 34.424.346.605.663 1.24 1.009 1.845 4.843 9.399 7.553 20.066 7.553 31.368 0 10.581-2.364 20.585-6.631 29.523-.317.605-.605 1.24-.923 1.845-8.505 16.491-23.496 29.09-41.601 34.424 3.661.605 7.438.923 11.272.923 26.581 0 49.616-15.107 61.004-37.191 4.845-9.401 7.583-20.068 7.583-31.37z" fill="#d9eeff" fill-rule="evenodd"/></g><g><path clip-rule="evenodd" d="m214.792 252.747c-3.027-9.947-4.642-20.47-4.642-31.368 0-10.927 1.614-21.45 4.642-31.368h-73.948l-15.712 26.611 15.712 36.125z" fill="#ffbc85" fill-rule="evenodd"/></g><g><path clip-rule="evenodd" d="m504.503 252.747v-62.735h-83.03c3.027 9.918 4.642 20.441 4.642 31.368 0 10.898-1.614 21.421-4.642 31.368h83.03z" fill="#ffbc85" fill-rule="evenodd"/></g><g><path clip-rule="evenodd" d="m504.503 243.319v-43.88-9.427h-34.711v9.427 43.88 9.428h34.711z" fill="#f5a96c" fill-rule="evenodd"/></g><g><path clip-rule="evenodd" d="m140.844 190.012v-113.449h-54.2c-12.8 0-23.813 6.487-23.813 20.614v53.048l24.188 66.397c1.096 3.027-20.123 60.515-24.188 68.357v56.277c0 11.33 9.254 20.614 20.584 20.614h57.429v-109.123z" fill="#fde588" fill-rule="evenodd"/></g><g><path clip-rule="evenodd" d="m100.453 279.415v-123.625c0-3.056-2.508-5.564-5.564-5.564h-32.059v134.754h32.059c3.056 0 5.564-2.509 5.564-5.565z" fill="#7e707d" fill-rule="evenodd"/></g><g><path clip-rule="evenodd" d="m140.844 190.012v-104.021-9.428h-9.428-14.674v9.428 275.88h14.674 9.428v-109.124-9.428-43.88z" fill="#fdd76f" fill-rule="evenodd"/></g><g><path clip-rule="evenodd" d="m140.844 50.933c0-5.737-4.67-10.408-10.408-10.408h-24.073c5.708 0 10.379 4.671 10.379 10.408v25.63h14.674 9.427v-25.63z" fill="#6a5c6b" fill-rule="evenodd"/></g><g><path clip-rule="evenodd" d="m261.266 417.773-33.702-173.704c-1.96-10.206-11.936-16.924-22.112-14.963l-182.666 35.433c-10.206 1.989-16.923 11.936-14.934 22.142l33.673 173.733c1.989 10.177 11.936 16.895 22.141 14.934l182.666-35.433c10.206-1.989 16.923-11.936 14.934-22.142z" fill="#eff6ff" fill-rule="evenodd"/></g><g><path clip-rule="evenodd" d="m77.216 434.264 139.104-26.985c3.431-.663 5.852-3.316 5.333-5.881l-10.004-50.252-7.323-36.759-24.967 4.844c-20.93 4.065-32.318 9.399-40.65 15.28-3.546 2.479-6.516 5.045-9.427 7.669-3.315 2.97-6.544 5.968-10.408 8.966-10.552 8.159-25.831 16.116-60.168 22.257l7.352 36.73 4.007 20.672c.492 2.566 3.721 4.122 7.151 3.459z" fill="#a6e0fa" fill-rule="evenodd"/></g><g><path clip-rule="evenodd" d="m121.009 361.871c3.863-2.998 7.092-6.026 10.408-8.995 2.912-2.595 5.91-5.189 9.427-7.669 8.332-5.853 19.748-11.186 40.679-15.251l24.938-4.844-10.292-51.78c-.519-2.566-3.719-4.123-7.15-3.46l-48.175 9.341-9.427 1.845-14.674 2.825-53.913 10.467-12.945 2.508c-3.431.663-5.824 3.316-5.334 5.881l16.289 81.389c34.337-6.17 49.617-14.127 60.169-22.257z" fill="#fde588" fill-rule="evenodd"/></g><g><path clip-rule="evenodd" d="m206.46 325.112-10.292-51.78c-.519-2.566-3.719-4.123-7.15-3.46l-21.075 4.094c3.402-.634 6.573.923 7.063 3.488l10.321 51.751z" fill="#fdd76f" fill-rule="evenodd"/></g><g><path clip-rule="evenodd" d="m213.783 361.871-7.323-36.759-21.132 4.094 6.487 32.665.836 4.094 7.871 39.527c.49 2.566-1.903 5.218-5.334 5.881l21.132-4.094c3.431-.663 5.852-3.316 5.333-5.881z" fill="#75cef9" fill-rule="evenodd"/></g><g><path clip-rule="evenodd" d="m236.991 292.62-9.427-48.551c-.029-.259-.086-.519-.144-.75-1.932-8.13-8.966-13.896-17.01-14.502-1.643-.115-3.287-.029-4.959.288l-45.666 8.88c6.4-1.24 12.743.98 17.01 5.334 2.479 2.508 4.296 5.737 5.045 9.428 0 .058.029.115.029.173l3.431 17.673 3.719-.721c3.431-.663 6.631.894 7.15 3.46l10.292 51.78 7.323 36.759 7.871 39.527c.519 2.566-1.903 5.218-5.333 5.881l-4.353.836 3.604 18.538c1.96 10.148-4.699 20.066-14.847 22.113l45.609-8.851c10.206-1.989 16.923-11.936 14.934-22.142l-10.84-55.902z" fill="#d9eeff" fill-rule="evenodd"/></g><g><path d="m451.571 109.109h-23.784c-4.143 0-7.5 3.357-7.5 7.5s3.357 7.5 7.5 7.5h23.784c4.143 0 7.5-3.357 7.5-7.5s-3.357-7.5-7.5-7.5z"/><path d="m318.118 145.291c-41.938 0-76.057 34.133-76.057 76.088 0 41.939 34.119 76.06 76.057 76.06 41.954 0 76.086-34.12 76.086-76.06 0-41.955-34.132-76.088-76.086-76.088zm0 137.147c-33.667 0-61.058-27.392-61.058-61.06 0-33.684 27.391-61.088 61.058-61.088 33.683 0 61.086 27.404 61.086 61.088 0 33.669-27.403 61.06-61.086 61.06z"/><path d="m483.919 69.063h-91.117l-8.82-24.376c-1.422-3.926-5.75-15.872-17.978-15.872h-116.673c-12.229 0-16.556 11.946-17.979 15.875l-8.819 24.373h-74.188v-18.13c0-9.874-8.033-17.907-17.907-17.907h-33.416c-9.858 0-17.878 8.033-17.878 17.907v18.455c-13.466 2.065-23.813 13.74-23.813 27.789v153.41l-33.98 6.591c-14.285 2.784-23.642 16.663-20.861 30.93l33.675 173.745c2.458 12.57 13.548 21.335 25.934 21.335 1.648 0 3.32-.155 4.997-.478l73.256-14.213c4.066-.788 6.723-4.725 5.934-8.791s-4.727-6.726-8.791-5.934l-73.243 14.21c-6.172 1.191-12.163-2.855-13.363-8.995l-33.676-173.741c-1.2-6.157 2.841-12.144 9-13.345l182.657-35.431c2.962-.567 5.987.059 8.52 1.77 2.532 1.711 4.24 4.284 4.811 7.259l33.703 173.71c1.2 6.157-2.841 12.144-9 13.345l-73.285 14.213c-4.066.789-6.723 4.725-5.935 8.791.789 4.066 4.725 6.72 8.791 5.936l73.292-14.216c14.285-2.784 23.643-16.663 20.861-30.932l-9.114-46.974h83.715c4.143 0 7.5-3.357 7.5-7.5s-3.357-7.5-7.5-7.5h-86.625l-7.903-40.734c19.848 14.933 44.172 23.213 69.417 23.213 50.05 0 92.76-31.997 108.757-76.603h70.128v81.01c0 7.231-5.869 13.114-13.084 13.114h-103.961c-4.143 0-7.5 3.357-7.5 7.5s3.357 7.5 7.5 7.5h103.961c15.485 0 28.084-12.612 28.084-28.114v-244.081c0-15.502-12.599-28.114-28.084-28.114zm-238.463-19.266c1.438-3.969 2.741-5.981 3.875-5.981h116.674c1.411 0 2.886 3.253 3.873 5.979l6.973 19.27h-138.367zm-42.805 171.582c0 .21.01.419.011.628l-54.318 10.537v-35.032h56.792c-1.625 7.704-2.485 15.686-2.485 23.867zm-108.507-170.446c0-1.576 1.318-2.907 2.878-2.907h33.414c1.603 0 2.907 1.304 2.907 2.907v18.131h-39.2v-18.131zm-23.813 46.244c0-7.23 5.87-13.113 13.084-13.113h3.229 46.7v151.39l-25.391 4.925v-84.589c0-7.204-5.86-13.064-13.064-13.064h-24.558zm0 60.549h22.623v85.563l-22.623 4.388zm247.787 164.124c-28.239 0-55.155-11.902-74.171-32.715l-9.018-46.48c-1.326-6.903-5.283-12.885-11.141-16.844-1.926-1.301-3.98-2.325-6.114-3.073-.006-.453-.024-.905-.024-1.358 0-55.415 45.07-100.499 100.467-100.499 55.414 0 100.496 45.084 100.496 100.499.001 55.398-45.081 100.47-100.495 100.47zm178.885-76.603h-65.876c1.626-7.704 2.487-15.687 2.487-23.868s-.861-16.163-2.486-23.867h65.875zm0-62.735h-70.125c-15.994-44.622-58.707-76.632-108.76-76.632-50.041 0-92.743 32.01-108.733 76.632h-61.041v-98.449h79.451 159.745 96.379c7.215 0 13.084 5.883 13.084 13.113z"/><path d="m227.205 408.583c1.76-2.629 2.4-5.708 1.805-8.649l-25.49-128.089c-1.355-6.699-8.347-10.792-15.929-9.336l-139.129 26.985c-7.612 1.471-12.565 7.907-11.264 14.718l25.502 127.999c.566 2.962 2.316 5.568 4.93 7.34 2.287 1.55 5.099 2.365 8.011 2.365.995 0 2.002-.095 3.004-.289l139.099-26.984c3.943-.762 7.391-2.971 9.461-6.06zm-160.459-33.218-14.292-71.366 136.888-26.55 8.305 41.734-17.551 3.409c-33.475 6.491-44.587 16.516-55.334 26.209-10.411 9.389-21.163 19.079-58.016 26.564zm10.162 51.32-3.494-18.024-3.723-18.591c40.934-8.332 53.75-19.876 65.117-30.129 10.068-9.081 18.763-16.925 48.146-22.622l17.62-3.423 13.182 66.242z"/></g></g></svg>